<svg width="29" height="29" viewBox="0 0 29 29" fill="none" xmlns="http://www.w3.org/2000/svg">
<circle cx="14.5471" cy="14.6935" r="12.8573" stroke="black" stroke-width="2.85718" stroke-linecap="round" stroke-linejoin="round"/>
<path d="M15.9757 1.90491C15.4785 2.32333 15.0306 2.81712 14.6495 3.38286C12.4455 6.65469 13.3111 11.0937 16.583 13.2978C16.8412 13.4717 17.1068 13.6266 17.3779 13.7626C20.2614 15.2095 21.3623 13.2594 22.9235 14.3111C23.9362 14.9933 24.2042 16.3673 23.522 17.38C22.8071 18.4413 21.69 18.9793 21.8833 20.7176C21.9924 21.6987 22.5951 22.5442 23.3761 23.2651" stroke="black" stroke-width="2.85718" stroke-linecap="round" stroke-linejoin="round"/>
<path d="M3.11839 10.8078C4.66396 11.1839 6.09415 12.0761 7.12703 13.4448C8.22801 14.9038 8.6844 16.6484 8.54396 18.337C8.46959 19.2313 9.05283 20.134 9.80335 20.626C10.166 20.8637 10.4945 21.1668 10.7707 21.5328C11.9936 23.1534 11.7496 25.4237 10.2613 26.7519" stroke="black" stroke-width="2.85718" stroke-linecap="round" stroke-linejoin="round"/>
</svg>
