<svg width="8" height="10" viewBox="0 0 8 10" fill="none" xmlns="http://www.w3.org/2000/svg">
<path d="M4.192 9.40545C3.55515 8.86223 2.96485 8.2667 2.42727 7.62509C1.62053 6.66154 0.662537 5.22657 0.662537 3.85915C0.661822 2.431 1.52183 1.14318 2.84126 0.596618C4.16068 0.0500597 5.67945 0.352502 6.68884 1.36282C7.35261 2.02364 7.72444 2.92253 7.72148 3.85915C7.72148 5.22657 6.76346 6.66154 5.95673 7.62509C5.41915 8.2667 4.82885 8.86223 4.192 9.40545ZM4.192 2.34653C3.65159 2.34653 3.15223 2.63483 2.88203 3.10284C2.61182 3.57085 2.61182 4.14746 2.88203 4.61547C3.15223 5.08347 3.65159 5.37178 4.192 5.37178C5.0274 5.37178 5.70463 4.69455 5.70463 3.85915C5.70463 3.02375 5.0274 2.34653 4.192 2.34653Z" fill="#79819A"/>
</svg>
