<svg width="33" height="33" viewBox="0 0 33 33" fill="none" xmlns="http://www.w3.org/2000/svg">
<rect x="0.404037" y="0.420837" width="32.2694" height="32.2694" rx="16.1347" fill="#0077B5"/>
<path d="M17.3791 24.1186H14.0177V14.0345H17.3791V15.7152C18.0956 14.8036 19.1821 14.2602 20.3413 14.2336C22.4259 14.2452 24.1079 15.9415 24.1019 18.0261V24.1186H20.7405V18.4463C20.606 17.5073 19.8007 16.8106 18.8522 16.8126C18.4373 16.8258 18.0457 17.0074 17.7677 17.3157C17.4897 17.624 17.3494 18.0322 17.3791 18.4463V24.1186ZM12.337 24.1186H8.97559V14.0345H12.337V24.1186ZM10.6563 12.3538C9.72806 12.3538 8.97559 11.6013 8.97559 10.6731C8.97559 9.74484 9.72806 8.99237 10.6563 8.99237C11.5845 8.99237 12.337 9.74484 12.337 10.6731C12.337 11.1188 12.1599 11.5463 11.8447 11.8615C11.5295 12.1767 11.102 12.3538 10.6563 12.3538Z" fill="white"/>
</svg>
