<svg width="33" height="33" viewBox="0 0 33 33" fill="none" xmlns="http://www.w3.org/2000/svg">
<rect x="0.404037" y="0.218811" width="32.2694" height="32.2694" rx="16.1347" fill="#00ACEE"/>
<path d="M23.2573 11.8896C24.0106 11.4392 24.5743 10.7301 24.843 9.8946C24.1352 10.3146 23.3607 10.6105 22.5531 10.7694C21.4334 9.58495 19.6594 9.29671 18.2223 10.0657C16.7852 10.8348 16.0408 12.4707 16.4051 14.0594C13.5056 13.9138 10.8042 12.5441 8.97307 10.2912C8.01746 11.9395 8.5058 14.0466 10.0891 15.1064C9.51653 15.088 8.95671 14.933 8.45626 14.6543C8.45626 14.6695 8.45626 14.6846 8.45626 14.6997C8.45659 16.4167 9.66667 17.8956 11.3496 18.2359C10.8185 18.3804 10.2615 18.4016 9.72098 18.2981C10.1943 19.7664 11.5475 20.7723 13.0899 20.8023C11.8125 21.805 10.2348 22.3487 8.61088 22.346C8.32304 22.3464 8.03542 22.3299 7.74953 22.2965C9.39862 23.3562 11.318 23.9186 13.2782 23.9166C16.0053 23.9354 18.6262 22.8602 20.5545 20.9317C22.4829 19.0032 23.5578 16.3823 23.5388 13.6552C23.5388 13.4988 23.5352 13.3434 23.5279 13.1888C24.2342 12.6783 24.8437 12.046 25.3279 11.3215C24.6699 11.6132 23.972 11.8046 23.2573 11.8896Z" fill="white"/>
</svg>
